# xmcd
#
# Track frame offsets:
#	150
#	23392
#	49100
#	72855
#	97580
#	116627
#	144332
#	162990
#	185230
#	213687
#
# Disc length: 3188 seconds
#
# Revision: 2
# Processed by: cddbd v1.5.2PL0 Copyright (c) Steve Scherf et al.
# Submitted via: EZCDAudioConverter 8.0.2.1
#
DISCID=850c720a
DTITLE=Various Artist - Mưa Tình Cuối Đông
DYEAR=1995
DGENRE=Pop
TTITLE0=Thùy Dương - Mưa Tình Cuối Đông
TTITLE1=Tuấn Ngọc - Bây giờ tháng mấy
TTITLE2=Julie - Nửa hồn thương đau
TTITLE3=Thùy Dương - Anh đã thấy mùa xuân chưa
TTITLE4=Ý Lan - Mất nhau mùa đông
TTITLE5=Thùy Dương - Trái tim mùa đông
TTITLE6=Thùy Dương, Tuấn Ngọc - Con quỳ lạy CHúa trên trời
TTITLE7=Thanh Lan - Một ngày mùa đông
TTITLE8=Lâm Thúy Vân - Mùa đông sắp đến
TTITLE9=Thùy Dương - Chuyện tình không suy tư
EXTD=
EXTT0=
EXTT1=
EXTT2=
EXTT3=
EXTT4=
EXTT5=
EXTT6=
EXTT7=
EXTT8=
EXTT9=
PLAYORDER=
